<?xml version="1.0" encoding="utf-8"?>
<!-- Generator: Adobe Illustrator 16.0.0, SVG Export Plug-In . SVG Version: 6.00 Build 0)  -->
<!DOCTYPE svg PUBLIC "-//W3C//DTD SVG 1.1//EN" "http://www.w3.org/Graphics/SVG/1.1/DTD/svg11.dtd">
<svg version="1.1" id="Layer_1" xmlns="http://www.w3.org/2000/svg" xmlns:xlink="http://www.w3.org/1999/xlink" x="0px" y="0px"
	 width="850.39px" height="850.39px" viewBox="0 0 850.39 850.39" enable-background="new 0 0 850.39 850.39" xml:space="preserve">
<path fill="none" stroke="#13110C" stroke-width="3.3079" stroke-miterlimit="10" d="M517.477,424.813
	c0,50.656-41.059,91.712-91.711,91.712c-50.652,0-91.712-41.057-91.712-91.712c0-50.649,41.06-91.712,91.712-91.712
	C476.418,333.101,517.477,374.164,517.477,424.813z"/>
<g>
	<path d="M376.532,392.751l-2.623,2.871c-1.375-0.815-2.368-1.222-2.972-1.222c-0.471,0-0.872,0.178-1.21,0.528
		c-0.337,0.356-0.502,0.773-0.502,1.26c0,0.961,0.872,1.795,2.616,2.501c1.279,0.547,2.247,1.038,2.902,1.48s1.203,1.054,1.649,1.84
		c0.439,0.786,0.662,1.632,0.662,2.546c0,1.677-0.681,3.135-2.03,4.376c-1.356,1.241-2.96,1.858-4.806,1.858
		c-2.024,0-4.022-0.948-5.996-2.858l2.769-3.227c1.241,1.279,2.4,1.919,3.482,1.919c0.509,0,0.993-0.226,1.458-0.678
		c0.471-0.449,0.7-0.923,0.7-1.417c0-1.019-1.076-1.919-3.227-2.696c-1.235-0.449-2.107-0.869-2.623-1.26
		c-0.516-0.395-0.949-0.964-1.305-1.712c-0.35-0.751-0.528-1.515-0.528-2.301c0-1.735,0.567-3.148,1.7-4.23
		c1.133-1.082,2.61-1.623,4.437-1.623C373.248,390.708,375.062,391.389,376.532,392.751z"/>
	<path d="M383.152,390.978h11.006v3.87h-6.792v3.943h6.792v3.813h-6.792v4.048h6.792v3.87h-11.006V390.978z"/>
	<path d="M415.386,392.019v4.765c-2.113-1.27-3.965-1.906-5.557-1.906c-1.585,0-2.858,0.547-3.807,1.639
		c-0.955,1.092-1.432,2.562-1.432,4.408c0,1.744,0.503,3.141,1.502,4.188c1.006,1.047,2.343,1.572,4.023,1.572
		c1.464,0,3.221-0.592,5.27-1.773v4.733c-2.298,0.764-4.208,1.146-5.735,1.146c-2.629,0-4.863-0.961-6.696-2.893
		c-1.84-1.932-2.756-4.287-2.756-7.062c0-2.833,0.936-5.226,2.807-7.187c1.872-1.961,4.144-2.941,6.824-2.941
		C411.561,390.708,413.407,391.146,415.386,392.019z"/>
	<path d="M420.962,400.746c0-2.89,0.955-5.277,2.865-7.155c1.916-1.881,4.175-2.82,6.798-2.82c2.896,0,5.296,0.942,7.193,2.833
		c1.896,1.891,2.838,4.281,2.838,7.167c0,2.871-0.936,5.251-2.812,7.148c-1.871,1.897-4.233,2.845-7.085,2.845
		c-2.845,0-5.194-0.945-7.034-2.833C421.885,406.048,420.962,403.651,420.962,400.746z M430.822,394.67
		c-1.643-0.029-2.96,0.538-3.965,1.696c-1,1.162-1.503,2.661-1.503,4.497c0,1.734,0.509,3.173,1.534,4.316
		c1.025,1.143,2.311,1.712,3.87,1.712c1.636,0,2.96-0.563,3.966-1.69c1.012-1.126,1.515-2.609,1.515-4.456
		c0-1.82-0.497-3.278-1.483-4.379S432.459,394.698,430.822,394.67z"/>
	<path d="M460.141,390.978h4.125v19.545h-4.105l-8.938-12.654v12.654h-4.207v-19.545h4.163l8.962,12.562V390.978z"/>
	<path d="M471.16,390.978h6.67c2.846,0,5.137,0.897,6.875,2.696c1.738,1.795,2.604,4.163,2.604,7.097
		c0,2.95-0.891,5.312-2.687,7.088c-1.788,1.779-4.175,2.664-7.154,2.664h-6.308V390.978z M475.398,394.67v12.072h1.668
		c1.731,0,3.151-0.471,4.259-1.413c1.114-0.942,1.667-2.514,1.667-4.72c0-1.28-0.267-2.416-0.801-3.402
		c-0.535-0.987-1.312-1.655-2.33-2.008c-1.019-0.354-1.986-0.528-2.909-0.528H475.398z"/>
</g>
<g>
	<path d="M377.379,439.631l-2.801,3.068c-1.47-0.865-2.533-1.305-3.183-1.305c-0.497,0-0.923,0.191-1.286,0.566
		c-0.363,0.376-0.541,0.824-0.541,1.344c0,1.031,0.929,1.922,2.801,2.673c1.368,0.586,2.399,1.114,3.1,1.585
		c0.7,0.472,1.286,1.127,1.757,1.967c0.478,0.837,0.713,1.744,0.713,2.722c0,1.792-0.726,3.352-2.17,4.675
		c-1.451,1.331-3.164,1.992-5.137,1.992c-2.165,0-4.297-1.018-6.41-3.055l2.96-3.457c1.324,1.372,2.565,2.057,3.724,2.057
		c0.541,0,1.063-0.242,1.56-0.726c0.497-0.478,0.745-0.987,0.745-1.515c0-1.089-1.146-2.05-3.45-2.881
		c-1.318-0.48-2.247-0.93-2.801-1.35c-0.554-0.417-1.019-1.027-1.394-1.83c-0.375-0.802-0.566-1.619-0.566-2.457
		c0-1.858,0.604-3.363,1.814-4.52c1.209-1.158,2.794-1.737,4.742-1.737C373.865,437.448,375.813,438.177,377.379,439.631z"/>
	<path d="M384.209,437.738h4.5v20.894h-4.5V437.738z"/>
	<path d="M394.718,437.738h14.055v4.439h-4.793v16.454h-4.5v-16.454h-4.761V437.738z"/>
	<path d="M413.591,437.738h14.048v4.439h-4.787v16.454h-4.5v-16.454h-4.761V437.738z"/>
	<path d="M433.922,437.738h11.764v4.134h-7.256v4.22h7.256v4.074h-7.256v4.328h7.256v4.138h-11.764V437.738z"/>
	<path d="M452.719,437.738h6.881c2.095,0,3.75,0.551,4.965,1.651c1.217,1.101,1.821,2.594,1.821,4.472
		c0,1.069-0.274,2.184-0.834,3.339c-0.56,1.158-1.585,2.062-3.087,2.718l5.85,8.714h-5.176l-5.403-8.084h-0.516v8.084h-4.501
		V437.738z M457.252,441.461v5.439h0.979c2.349,0,3.526-0.958,3.526-2.877c0-0.786-0.305-1.41-0.916-1.871
		c-0.617-0.462-1.465-0.691-2.553-0.691H457.252z"/>
	<path d="M486.755,439.631l-2.801,3.068c-1.478-0.865-2.534-1.305-3.183-1.305c-0.496,0-0.93,0.191-1.286,0.566
		c-0.362,0.376-0.541,0.824-0.541,1.344c0,1.031,0.93,1.922,2.794,2.673c1.369,0.586,2.406,1.114,3.107,1.585
		c0.699,0.472,1.285,1.127,1.756,1.967c0.472,0.837,0.707,1.744,0.707,2.722c0,1.792-0.726,3.352-2.171,4.675
		c-1.444,1.331-3.157,1.992-5.13,1.992c-2.164,0-4.303-1.018-6.416-3.055l2.959-3.457c1.33,1.372,2.572,2.057,3.73,2.057
		c0.541,0,1.057-0.242,1.553-0.726c0.503-0.478,0.752-0.987,0.752-1.515c0-1.089-1.152-2.05-3.457-2.881
		c-1.311-0.48-2.247-0.93-2.795-1.35c-0.56-0.417-1.018-1.027-1.4-1.83c-0.369-0.802-0.56-1.619-0.56-2.457
		c0-1.858,0.604-3.363,1.814-4.52c1.209-1.158,2.788-1.737,4.742-1.737C483.241,437.448,485.183,438.177,486.755,439.631z"/>
</g>
<line fill="none" stroke="#000000" stroke-width="3.3076" stroke-miterlimit="10" x1="334.053" y1="424.813" x2="517.477" y2="424.813"/>
</svg>
