<?xml version="1.0" encoding="utf-8"?>
<!-- Generator: Adobe Illustrator 18.1.1, SVG Export Plug-In . SVG Version: 6.00 Build 0)  -->
<svg version="1.1" id="Layer_1" xmlns="http://www.w3.org/2000/svg" xmlns:xlink="http://www.w3.org/1999/xlink" x="0px" y="0px"
	 viewBox="0 0 450 450" style="enable-background:new 0 0 450 450;" xml:space="preserve">
<style type="text/css">
	.st0{fill:none;stroke:#161410;stroke-width:3.3079;stroke-miterlimit:10;}
	.st1{fill:#010101;}
	.st2{fill:none;stroke:#010101;stroke-width:3.3076;stroke-miterlimit:10;}
</style>
<path class="st0" d="M440.2,224.5c0,119-96.5,215.5-215.5,215.5S9.3,343.5,9.3,224.5C9.3,105.5,105.8,9,224.8,9
	C343.8,9,440.2,105.5,440.2,224.5z"/>
<g>
	<path class="st1" d="M109.1,149.1l-6.2,6.7c-3.2-1.9-5.6-2.9-7-2.9c-1.1,0-2,0.4-2.8,1.2c-0.8,0.8-1.2,1.8-1.2,3
		c0,2.3,2,4.2,6.1,5.9c3,1.3,5.3,2.4,6.8,3.5c1.5,1,2.8,2.5,3.9,4.3c1,1.8,1.6,3.8,1.6,6c0,3.9-1.6,7.4-4.8,10.3
		c-3.2,2.9-7,4.4-11.3,4.4c-4.8,0-9.4-2.2-14.1-6.7l6.5-7.6c2.9,3,5.6,4.5,8.2,4.5c1.2,0,2.3-0.5,3.4-1.6c1.1-1.1,1.6-2.2,1.6-3.3
		c0-2.4-2.5-4.5-7.6-6.3c-2.9-1.1-5-2-6.2-3c-1.2-0.9-2.2-2.3-3.1-4c-0.8-1.8-1.2-3.6-1.2-5.4c0-4.1,1.3-7.4,4-9.9
		c2.7-2.5,6.1-3.8,10.4-3.8C101.4,144.3,105.6,145.9,109.1,149.1z"/>
	<path class="st1" d="M124.7,145h25.9v9.1h-16v9.3h16v9h-16v9.5h16v9.1h-25.9V145z"/>
	<path class="st1" d="M200.4,147.4v11.2c-5-3-9.3-4.5-13.1-4.5c-3.7,0-6.7,1.3-8.9,3.9c-2.2,2.6-3.4,6-3.4,10.4
		c0,4.1,1.2,7.4,3.5,9.8c2.4,2.5,5.5,3.7,9.5,3.7c3.4,0,7.6-1.4,12.4-4.2v11.1c-5.4,1.8-9.9,2.7-13.5,2.7c-6.2,0-11.4-2.3-15.7-6.8
		c-4.3-4.5-6.5-10.1-6.5-16.6c0-6.7,2.2-12.3,6.6-16.9c4.4-4.6,9.7-6.9,16-6.9C191.4,144.3,195.7,145.4,200.4,147.4z"/>
	<path class="st1" d="M213.5,167.9c0-6.8,2.2-12.4,6.7-16.8c4.5-4.4,9.8-6.6,16-6.6c6.8,0,12.4,2.2,16.9,6.7
		c4.5,4.4,6.7,10.1,6.7,16.8c0,6.7-2.2,12.3-6.6,16.8c-4.4,4.5-9.9,6.7-16.6,6.7c-6.7,0-12.2-2.2-16.5-6.7
		C215.6,180.4,213.5,174.7,213.5,167.9z M236.6,153.6c-3.9-0.1-7,1.3-9.3,4c-2.3,2.7-3.5,6.3-3.5,10.6c0,4.1,1.2,7.5,3.6,10.1
		s5.4,4,9.1,4c3.8,0,7-1.3,9.3-4c2.4-2.6,3.6-6.1,3.6-10.5c0-4.3-1.2-7.7-3.5-10.3C243.6,155,240.5,153.7,236.6,153.6z"/>
	<path class="st1" d="M305.5,145h9.7v45.9h-9.6l-21-29.7v29.7h-9.9V145h9.8l21.1,29.5V145z"/>
	<path class="st1" d="M331.4,145h15.7c6.7,0,12.1,2.1,16.2,6.3c4.1,4.2,6.1,9.8,6.1,16.7c0,6.9-2.1,12.5-6.3,16.7
		c-4.2,4.2-9.8,6.3-16.8,6.3h-14.8V145z M341.4,153.6V182h3.9c4.1,0,7.4-1.1,10-3.3c2.6-2.2,3.9-5.9,3.9-11.1c0-3-0.6-5.7-1.9-8
		c-1.3-2.3-3.1-3.9-5.5-4.7c-2.4-0.8-4.7-1.2-6.8-1.2L341.4,153.6L341.4,153.6z"/>
</g>
<g>
	<path class="st1" d="M111.1,259.3l-6.6,7.2c-3.5-2-6-3.1-7.5-3.1c-1.2,0-2.2,0.4-3,1.3c-0.9,0.9-1.3,1.9-1.3,3.2
		c0,2.4,2.2,4.5,6.6,6.3c3.2,1.4,5.6,2.6,7.3,3.7c1.6,1.1,3,2.6,4.1,4.6c1.1,2,1.7,4.1,1.7,6.4c0,4.2-1.7,7.9-5.1,11
		c-3.4,3.1-7.4,4.7-12.1,4.7c-5.1,0-10.1-2.4-15.1-7.2l7-8.1c3.1,3.2,6,4.8,8.7,4.8c1.3,0,2.5-0.6,3.7-1.7c1.2-1.1,1.8-2.3,1.8-3.6
		c0-2.6-2.7-4.8-8.1-6.8c-3.1-1.1-5.3-2.2-6.6-3.2c-1.3-1-2.4-2.4-3.3-4.3c-0.9-1.9-1.3-3.8-1.3-5.8c0-4.4,1.4-7.9,4.3-10.6
		c2.8-2.7,6.6-4.1,11.1-4.1C102.8,254.1,107.4,255.9,111.1,259.3z"/>
	<path class="st1" d="M127.1,254.8h10.6v49.1h-10.6V254.8z"/>
	<path class="st1" d="M151.8,254.8h33v10.4h-11.3v38.7H163v-38.7h-11.2L151.8,254.8L151.8,254.8z"/>
	<path class="st1" d="M196.2,254.8h33v10.4h-11.2v38.7h-10.6v-38.7h-11.2L196.2,254.8L196.2,254.8z"/>
	<path class="st1" d="M243.9,254.8h27.6v9.7h-17v9.9h17v9.6h-17v10.2h17v9.7h-27.6V254.8z"/>
	<path class="st1" d="M288.1,254.8h16.2c4.9,0,8.8,1.3,11.7,3.9c2.9,2.6,4.3,6.1,4.3,10.5c0,2.5-0.6,5.1-2,7.8
		c-1.3,2.7-3.7,4.8-7.3,6.4l13.7,20.5h-12.2l-12.7-19h-1.2v19h-10.6L288.1,254.8L288.1,254.8z M298.7,263.6v12.8h2.3
		c5.5,0,8.3-2.3,8.3-6.8c0-1.8-0.7-3.3-2.2-4.4c-1.4-1.1-3.4-1.6-6-1.6L298.7,263.6L298.7,263.6z"/>
	<path class="st1" d="M368.1,259.3l-6.6,7.2c-3.5-2-6-3.1-7.5-3.1c-1.2,0-2.2,0.4-3,1.3c-0.9,0.9-1.3,1.9-1.3,3.2
		c0,2.4,2.2,4.5,6.6,6.3c3.2,1.4,5.7,2.6,7.3,3.7c1.6,1.1,3,2.6,4.1,4.6c1.1,2,1.7,4.1,1.7,6.4c0,4.2-1.7,7.9-5.1,11
		c-3.4,3.1-7.4,4.7-12.1,4.7c-5.1,0-10.1-2.4-15.1-7.2l7-8.1c3.1,3.2,6,4.8,8.8,4.8c1.3,0,2.5-0.6,3.6-1.7c1.2-1.1,1.8-2.3,1.8-3.6
		c0-2.6-2.7-4.8-8.1-6.8c-3.1-1.1-5.3-2.2-6.6-3.2c-1.3-1-2.4-2.4-3.3-4.3c-0.9-1.9-1.3-3.8-1.3-5.8c0-4.4,1.4-7.9,4.3-10.6
		c2.8-2.7,6.5-4.1,11.1-4.1C359.8,254.1,364.4,255.9,368.1,259.3z"/>
</g>
<line class="st2" x1="9.3" y1="224.5" x2="440.2" y2="224.5"/>
</svg>
